<svg xmlns="http://www.w3.org/2000/svg" viewBox="0 0 26 40">
<path fill-rule="evenodd" clip-rule="evenodd" d="M26 0H21V9.59611C20.6316 9.30695 20.2438 9.03749 19.8367 8.78775C17.8939 7.59592 15.6 7 12.9551 7C10.3592 7 8.08979 7.58775 6.14693 8.76326C4.20408 9.92245 2.69388 11.5551 1.61633 13.6612C0.538774 15.751 0 18.1755 0 20.9347C0 23.6775 0.522447 26.102 1.56734 28.2082C2.62857 30.298 4.13061 31.9388 6.07346 33.1306C8.01632 34.3224 10.3102 34.9184 12.9551 34.9184C15.5837 34.9184 17.8694 34.3306 19.8122 33.1551C20.2284 32.8998 20.6243 32.6239 21 32.3275V34H26V0ZM18.6122 27.5469C17.3714 29.2449 15.4857 30.0939 12.9551 30.0939C10.4898 30.0939 8.62041 29.2612 7.34694 27.5959C6.07347 25.9306 5.43674 23.7102 5.43674 20.9347C5.43674 19.1388 5.70612 17.5633 6.2449 16.2082C6.78367 14.8367 7.60816 13.7673 8.71837 13C9.82857 12.2163 11.2408 11.8245 12.9551 11.8245C15.4531 11.8245 17.3306 12.6571 18.5878 14.3224C19.8612 15.9714 20.498 18.1755 20.498 20.9347C20.498 23.6286 19.8694 25.8327 18.6122 27.5469Z"/>

  <style>
    path {
      stroke: #000;
    }

    @media (prefers-color-scheme: dark) {
      path {
        stroke: #fff;
      }
    }
  </style>
</svg>