<svg width="107" height="35" viewBox="0 0 107 35" fill="none" xmlns="http://www.w3.org/2000/svg">
<path fill-rule="evenodd" clip-rule="evenodd" d="M26 0H21V9.59611C20.6316 9.30695 20.2438 9.03749 19.8367 8.78775C17.8939 7.59592 15.6 7 12.9551 7C10.3592 7 8.08979 7.58775 6.14693 8.76326C4.20408 9.92245 2.69388 11.5551 1.61633 13.6612C0.538774 15.751 0 18.1755 0 20.9347C0 23.6775 0.522447 26.102 1.56734 28.2082C2.62857 30.298 4.13061 31.9388 6.07346 33.1306C8.01632 34.3224 10.3102 34.9184 12.9551 34.9184C15.5837 34.9184 17.8694 34.3306 19.8122 33.1551C20.2284 32.8998 20.6243 32.6239 21 32.3275V34H26V0ZM12.9551 30.0939C15.4857 30.0939 17.3714 29.2449 18.6122 27.5469C19.8694 25.8327 20.498 23.6286 20.498 20.9347C20.498 18.1755 19.8612 15.9714 18.5878 14.3224C17.3306 12.6571 15.4531 11.8245 12.9551 11.8245C11.2408 11.8245 9.82857 12.2163 8.71837 13C7.60816 13.7673 6.78367 14.8367 6.2449 16.2082C5.70612 17.5633 5.43674 19.1388 5.43674 20.9347C5.43674 23.7102 6.07347 25.9306 7.34694 27.5959C8.62041 29.2612 10.4898 30.0939 12.9551 30.0939ZM34.1093 33.2857C36.1012 34.4286 38.4114 35 41.04 35C43.6032 35 45.9298 34.3551 48.0196 33.0653C50.1093 31.7592 51.6685 29.9225 52.6971 27.5551L47.6767 25.9633C47.0236 27.3184 46.1094 28.3633 44.9338 29.098C43.7747 29.8164 42.3951 30.1755 40.7951 30.1755C38.3624 30.1755 36.5012 29.3837 35.2114 27.8C34.144 26.4759 33.5182 24.7045 33.3342 22.4857H47.9216H50.493H53.04C53.2359 19.3184 52.8604 16.5837 51.9134 14.2817C50.9828 11.9796 49.5706 10.2082 47.6767 8.96738C45.7828 7.71024 43.4889 7.08167 40.7951 7.08167C38.2155 7.08167 35.9542 7.66126 34.0114 8.82044C32.0685 9.97962 30.5502 11.6204 29.4563 13.7429C28.3787 15.8653 27.84 18.3715 27.84 21.2613C27.84 23.9878 28.3869 26.3878 29.4808 28.4613C30.591 30.5184 32.1338 32.1266 34.1093 33.2857ZM47.7955 18.4939C47.5643 16.4815 47.0185 14.9223 46.1583 13.8164C45.0318 12.347 43.3094 11.6123 40.991 11.6123C38.4277 11.6123 36.5012 12.4204 35.2114 14.0368C34.3074 15.1696 33.7202 16.6553 33.4498 18.4939H47.7955ZM60.9835 33.1878C62.8773 34.396 65.1794 35 67.8896 35C70.7304 35 73.1467 34.3143 75.1386 32.9429C77.1304 31.5551 78.559 29.5715 79.4243 26.9919L74.2324 25.7674C73.6937 27.1878 72.91 28.2817 71.8814 29.049C70.8692 29.8 69.5386 30.1755 67.8896 30.1755C65.4733 30.1755 63.6447 29.3347 62.4039 27.6531C61.1794 25.9715 60.559 23.7674 60.5426 21.0408C60.559 19.2776 60.8284 17.7102 61.3508 16.3388C61.8733 14.9674 62.6732 13.8898 63.7508 13.1062C64.8284 12.3062 66.208 11.9062 67.8896 11.9062C69.3753 11.9062 70.6896 12.3225 71.8324 13.1551C72.9916 13.9715 73.8243 15.1225 74.3304 16.6082L79.4243 15.1388C78.7712 12.6408 77.4161 10.6735 75.359 9.23677C73.3182 7.80003 70.8529 7.08167 67.9631 7.08167C65.2855 7.08167 62.9916 7.67758 61.0814 8.86942C59.1712 10.0613 57.7018 11.7102 56.6733 13.8164C55.6447 15.9062 55.1222 18.3143 55.1059 21.0408C55.1222 23.7184 55.6284 26.1102 56.6243 28.2164C57.6365 30.3225 59.0896 31.9796 60.9835 33.1878ZM93.2224 35C90.5775 35 88.2836 34.4041 86.3407 33.2123C84.3979 32.0204 82.8958 30.3796 81.8346 28.2898C80.7897 26.1837 80.2673 23.7592 80.2673 21.0164C80.2673 18.2572 80.806 15.8327 81.8836 13.7429C82.9611 11.6368 84.4713 10.0041 86.4142 8.84493C88.357 7.66942 90.6264 7.08167 93.2224 7.08167C95.8673 7.08167 98.1611 7.67758 100.104 8.86942C102.047 10.0613 103.549 11.7021 104.61 13.7919C105.671 15.8817 106.202 18.2898 106.202 21.0164C106.202 23.7755 105.663 26.2082 104.586 28.3143C103.524 30.4041 102.022 32.0449 100.08 33.2368C98.1367 34.4123 95.8509 35 93.2224 35ZM93.2224 30.1755C95.753 30.1755 97.6387 29.3266 98.8795 27.6286C100.137 25.9143 100.765 23.7102 100.765 21.0164C100.765 18.2572 100.128 16.0531 98.855 14.4041C97.5979 12.7388 95.7203 11.9062 93.2224 11.9062C91.5081 11.9062 90.0958 12.298 88.9856 13.0817C87.8754 13.849 87.0509 14.9184 86.5122 16.2898C85.9734 17.6449 85.704 19.2204 85.704 21.0164C85.704 23.7919 86.3407 26.0123 87.6142 27.6776C88.8877 29.3429 90.757 30.1755 93.2224 30.1755Z" fill="black"/>
</svg>
